<?xml version="1.0" encoding="UTF-8" standalone="no"?>
<!-- Created with Inkscape (http://www.inkscape.org/) -->

<svg
   xmlns:dc="http://purl.org/dc/elements/1.1/"
   xmlns:cc="http://creativecommons.org/ns#"
   xmlns:rdf="http://www.w3.org/1999/02/22-rdf-syntax-ns#"
   xmlns:svg="http://www.w3.org/2000/svg"
   xmlns="http://www.w3.org/2000/svg"
   xmlns:xlink="http://www.w3.org/1999/xlink"
   xmlns:sodipodi="http://sodipodi.sourceforge.net/DTD/sodipodi-0.dtd"
   xmlns:inkscape="http://www.inkscape.org/namespaces/inkscape"
   width="1024"
   height="450"
   viewBox="0 0 1024 450.00001"
   id="svg4699"
   version="1.1"
   inkscape:version="0.91 r13725"
   sodipodi:docname="Abgleiten-1.svg">
  <defs
     id="defs4701">
    <linearGradient
       inkscape:collect="always"
       id="linearGradient5118">
      <stop
         style="stop-color:#ff2500;stop-opacity:1"
         offset="0"
         id="stop5120" />
      <stop
         style="stop-color:#ffcc00;stop-opacity:1"
         offset="1"
         id="stop5122" />
    </linearGradient>
    <marker
       inkscape:stockid="TriangleOutM"
       orient="auto"
       refY="0.0"
       refX="0.0"
       id="TriangleOutM"
       style="overflow:visible"
       inkscape:isstock="true">
      <path
         id="path4963"
         d="M 5.77,0.0 L -2.88,5.0 L -2.88,-5.0 L 5.77,0.0 z "
         style="fill-rule:evenodd;stroke:#000000;stroke-width:1.0pt"
         transform="scale(0.4)" />
    </marker>
    <marker
       inkscape:isstock="true"
       style="overflow:visible"
       id="marker6963"
       refX="0.0"
       refY="0.0"
       orient="auto"
       inkscape:stockid="TriangleOutM">
      <path
         transform="scale(0.4)"
         style="fill-rule:evenodd;stroke:#000000;stroke-width:1pt;stroke-opacity:1;fill:#000000;fill-opacity:1"
         d="M 5.77,0.0 L -2.88,5.0 L -2.88,-5.0 L 5.77,0.0 z "
         id="path6965" />
    </marker>
    <marker
       inkscape:stockid="DiamondSend"
       orient="auto"
       refY="0.0"
       refX="0.0"
       id="DiamondSend"
       style="overflow:visible"
       inkscape:isstock="true">
      <path
         id="path6744"
         d="M 0,-7.0710768 L -7.0710894,0 L 0,7.0710589 L 7.0710462,0 L 0,-7.0710768 z "
         style="fill-rule:evenodd;stroke:#000000;stroke-width:1pt;stroke-opacity:1;fill:#000000;fill-opacity:1"
         transform="scale(0.2) translate(-6,0)" />
    </marker>
    <marker
       inkscape:isstock="true"
       style="overflow:visible"
       id="marker6963-8"
       refX="0"
       refY="0"
       orient="auto"
       inkscape:stockid="TriangleOutM">
      <path
         inkscape:connector-curvature="0"
         transform="scale(0.4,0.4)"
         style="fill:#000000;fill-opacity:1;fill-rule:evenodd;stroke:#000000;stroke-width:1pt;stroke-opacity:1"
         d="m 5.77,0 -8.65,5 0,-10 8.65,5 z"
         id="path6965-8" />
    </marker>
    <linearGradient
       inkscape:collect="always"
       xlink:href="#linearGradient5118"
       id="linearGradient5146"
       x1="-2.1780236"
       y1="335"
       x2="148.17802"
       y2="335"
       gradientUnits="userSpaceOnUse"
       gradientTransform="translate(9,32)" />
  </defs>
  <sodipodi:namedview
     id="base"
     pagecolor="#ffffff"
     bordercolor="#666666"
     borderopacity="1.0"
     inkscape:pageopacity="0.0"
     inkscape:pageshadow="2"
     inkscape:zoom="1"
     inkscape:cx="271.77268"
     inkscape:cy="146.27081"
     inkscape:document-units="px"
     inkscape:current-layer="layer5"
     showgrid="false"
     units="px"
     inkscape:window-width="1920"
     inkscape:window-height="1138"
     inkscape:window-x="-8"
     inkscape:window-y="-8"
     inkscape:window-maximized="1" />
  <metadata
     id="metadata4704">
    <rdf:RDF>
      <cc:Work
         rdf:about="">
        <dc:format>image/svg+xml</dc:format>
        <dc:type
           rdf:resource="http://purl.org/dc/dcmitype/StillImage" />
        <dc:title />
      </cc:Work>
    </rdf:RDF>
  </metadata>
  <g
     inkscape:groupmode="layer"
     id="layer3"
     inkscape:label="Wasser"
     style="display:inline"
     sodipodi:insensitive="true">
    <rect
       style="opacity:1;fill:#0096ff;fill-opacity:1;stroke:none;stroke-width:5;stroke-linecap:round;stroke-miterlimit:0.60000002;stroke-dasharray:none;stroke-opacity:1"
       id="rect6626"
       width="949.5434"
       height="122.35464"
       x="42.426407"
       y="268.04636"
       ry="0" />
  </g>
  <g
     inkscape:groupmode="layer"
     id="layer4"
     inkscape:label="Platte">
    <path
       style="fill:#c8c8c8;fill-opacity:1;fill-rule:evenodd;stroke:none;stroke-width:1px;stroke-linecap:butt;stroke-linejoin:miter;stroke-opacity:1"
       d="m 48.92641,341.31215 470.64218,-10.5 127.27922,0 c 0,0 34.01488,-1.64275 50.81068,-4.24264 16.37027,-2.53403 32.25699,-7.56675 48.45584,-11.03147 14.20751,-3.0388 33.07312,-9.40308 42.73858,-8.55584 9.66546,0.84723 23.61676,-2.96955 23.61676,-2.96955 l 21.1929,27.21321 c 0,0 -3.31338,11.10818 -7.55584,14.55583 -14.59552,11.86107 -33.17012,12.43543 -51.5066,16.61727 -13.30318,3.03394 -25.37581,3.85761 -38.89037,5.73807 -20.03504,2.78774 -44.44974,4.56103 -64.61828,6.11168 -12.77527,0.98222 -25.57832,1.64516 -38.3858,2.02031 -194.34655,5.6927 -583.27927,3.48984 -583.27927,3.48984 z"
       id="path6631"
       inkscape:connector-curvature="0"
       sodipodi:nodetypes="cccaazccssssscc" />
    <path
       style="fill:none;fill-rule:evenodd;stroke:#000000;stroke-width:3;stroke-linecap:butt;stroke-linejoin:miter;stroke-miterlimit:4;stroke-dasharray:none;stroke-opacity:1;marker-end:url(#marker6963)"
       d="m 690.84332,344.03499 c 0,0 -102.08306,3.52617 -153.12047,5.40355 -36.20394,1.33174 -72.39267,3.10245 -108.60574,4.15737 -24.17233,0.70416 -48.35188,1.20811 -72.53326,1.44975 -18.18184,0.18169 -54.54824,0 -54.54824,0"
       id="path6955"
       inkscape:connector-curvature="0"
       sodipodi:nodetypes="caaac" />
  </g>
  <g
     inkscape:groupmode="layer"
     id="layer2"
     inkscape:label="Kruste"
     sodipodi:insensitive="true">
    <path
       style="fill:#646464;fill-opacity:1;fill-rule:evenodd;stroke:none;stroke-width:1px;stroke-linecap:butt;stroke-linejoin:miter;stroke-opacity:1"
       d="m 44.42857,444.14286 -1.71428,-64.28572 563.71428,1.71429 116.2568,-8.2415 c 0,0 39.25508,-3.18739 58.39595,-7.52538 15.19581,-3.4439 29.86143,-9.00847 44.40611,-14.59645 14.47047,-5.55947 24.74959,-8.92519 42.53808,-18.79442 10.8103,-5.99766 32.73604,-14.65703 46.32488,-21.68275 13.58884,-7.02572 22.59714,-15.46279 35.33504,-20.07107 9.66388,-3.49617 19.2311,-8.67064 30.34518,-5.44923 9.55555,2.76967 -1.91827,37.7934 -1.91827,37.7934 l -5.78679,119.5061 c 0,0 -549.19258,4.27758 -926.08189,5.44926"
       id="path6629"
       inkscape:connector-curvature="0"
       sodipodi:nodetypes="ccccaaszasccc" />
  </g>
  <g
     inkscape:label="Passpartout"
     inkscape:groupmode="layer"
     id="layer1"
     style="display:inline"
     sodipodi:insensitive="true">
    <rect
       style="opacity:1;fill:#646464;fill-opacity:1;stroke:none;stroke-width:5;stroke-linecap:round;stroke-miterlimit:0.60000002;stroke-dasharray:none;stroke-opacity:1"
       id="rect6608"
       width="947.52307"
       height="10"
       x="37.919998"
       y="440" />
    <rect
       style="opacity:1;fill:#ffffff;fill-opacity:1;stroke:none;stroke-width:5;stroke-linecap:round;stroke-miterlimit:0.60000002;stroke-dasharray:none;stroke-opacity:1"
       id="rect6048"
       width="50"
       height="450"
       x="0"
       y="0" />
    <rect
       style="opacity:1;fill:#ffffff;fill-opacity:1;stroke:none;stroke-width:5;stroke-linecap:round;stroke-miterlimit:0.60000002;stroke-dasharray:none;stroke-opacity:1"
       id="rect6048-2"
       width="50"
       height="450"
       x="974"
       y="0" />
  </g>
  <g
     inkscape:groupmode="layer"
     id="layer5"
     inkscape:label="Passpartout 1">
    <path
       sodipodi:type="star"
       style="opacity:1;fill:url(#linearGradient5146);fill-opacity:1;stroke:#ffcc00;stroke-width:5;stroke-linecap:round;stroke-miterlimit:4;stroke-dasharray:none;stroke-dashoffset:0;stroke-opacity:1"
       id="path5100"
       sodipodi:sides="7"
       sodipodi:cx="82"
       sodipodi:cy="367"
       sodipodi:r1="74.330345"
       sodipodi:r2="32.175064"
       sodipodi:arg1="0.58427128"
       sodipodi:arg2="1.0330702"
       inkscape:flatsided="false"
       inkscape:rounded="0"
       inkscape:randomized="0"
       d="M 144,408 98.479564,394.63438 88.601277,441.03664 70.669415,397.11399 28.231657,418.32217 51.391428,376.91716 8.3506955,356.96107 55.16232,349.2525 43.929163,303.15948 l 35.213369,31.79259 29.033218,-37.52096 -2.90127,47.35328 47.43698,-0.69486 -38.83119,27.25598 z"
       transform="matrix(0.84190155,-0.53963116,0.53963116,0.84190155,-187.42683,100.85195)" />
  </g>
</svg>
